PathFileType	4	(X/Y/Z)	Patient4_TMGait_0pt6_02_left_30.trc.trc
DataRate	CameraRate	NumFrames	NumMarkers	Units	OrigDataRate	OrigDataStartFrame	OrigNumFrames
80.924855491329	80.924855491329	6	33	mm	80.924855491329	18	       141
Frame#	Time	Sacral			L.Shoulder			Chest			R.Shoulder			Neck			R.ASIS			L.ASIS			R.Thigh.Superior			R.Thigh.Lateral			R.Thigh.Inferior			R.Patella			L.Thigh.Superior			L.Thigh.Lateral			L.Thigh.Inferior			L.Patella			L.Shank.Superior			L.Shank.Lateral			L.Shank.Inferior			R.Shank.Superior			R.Shank.Lateral			R.Shank.Inferior			R.Heel			R.Midfoot.Superior			R.Midfoot.Lateral			R.Toe			L.Heel			L.Midfoot.Lateral			L.Midfoot.Superior			L.Toe			L.Elbow			L.Wrist			R.Elbow			R.Wrist			
		X1	Y1	Z1	X2	Y2	Z2	X3	Y3	Z3	X4	Y4	Z4	X5	Y5	Z5	X6	Y6	Z6	X7	Y7	Z7	X8	Y8	Z8	X9	Y9	Z9	X10	Y10	Z10	X11	Y11	Z11	X12	Y12	Z12	X13	Y13	Z13	X14	Y14	Z14	X15	Y15	Z15	X16	Y16	Z16	X17	Y17	Z17	X18	Y18	Z18	X19	Y19	Z19	X20	Y20	Z20	X21	Y21	Z21	X22	Y22	Z22	X23	Y23	Z23	X24	Y24	Z24	X25	Y25	Z25	X26	Y26	Z26	X27	Y27	Z27	X28	Y28	Z28	X29	Y29	Z29	X30	Y30	Z30	X31	Y31	Z31	X32	Y32	Z32	X33	Y33	Z33	

18	36.870071428571	851.004769092129	1026.388104659466	500.105936643120	1067.926928537916	1415.015783207590	282.819421584911	1176.979204615880	1339.060353031096	435.760998595160	1125.898893870920	1436.221342989914	609.601534021876	1091.496489362052	1483.131478632608	428.966244371723	1073.505314012245	934.857564720642	602.040521068830	1045.740672773608	952.195739844120	327.475284007007	1087.005562270980	728.668328059044	577.296210697534	992.546075529106	634.753054832036	641.690727969016	1056.083290290637	571.552166289438	559.266830193752	1043.953530869018	485.423563953271	566.769976799365	1128.248606877607	796.663096140569	376.044328448662	1104.464403425962	666.568300842981	293.239306657737	1204.111401461264	614.888623131373	367.206287069759	1236.116657612021	542.529364759880	363.853446100074	1210.465977198285	465.262649889053	349.856415224358	1134.580167016167	347.187718172545	283.762483618615	1197.998382928457	235.450688113162	345.694951222411	1011.108155571318	399.731040442207	575.979353913076	932.023946578886	302.639502848577	638.570278230251	966.950190592175	204.092589479086	577.075994847317	823.937282540644	42.916797247995	548.211250563927	993.580520408193	96.395793625450	587.278676987592	904.585348244801	37.088522847824	625.939474463719	1113.086502121306	43.044921165747	621.503742039399	1089.407717660017	62.456108496262	364.108073977411	1172.681961981103	65.271321817504	293.553200272838	1245.266274406535	137.108154352615	326.544446742017	1379.414746538869	99.889664701079	315.015766222528	932.998329155835	1074.364780935848	208.385157713117	914.119413623713	815.441808276000	220.670398861682	1199.024704120583	1113.467139589776	745.651489307303	1413.146166551640	1163.548301752468	631.927905331026	
19	36.882428571429	852.157104815935	1025.033498187931	497.498376764881	1068.026119259341	1414.393009176493	280.984139893088	1176.981893929895	1338.758107886882	434.107071301516	1125.167153801828	1435.685917977997	607.754063984155	1091.018824970131	1482.451441790421	427.209659291194	1074.353004195924	934.263183316986	600.689996084850	1047.786035839918	950.623555502941	325.928120026077	1086.428662549147	727.292500145825	576.448172882529	990.998352430115	633.716398435384	640.535964540789	1054.400295733199	569.948503499440	558.444212303989	1041.368943322226	483.907713137547	565.776621536455	1128.394182404162	792.249773652616	374.617068424569	1101.841476955236	662.490243738499	292.043879321471	1200.411958319985	609.322983993422	366.075811410649	1230.940756680906	537.690717929105	363.108449037199	1206.597473408053	460.977802477316	348.809219300026	1133.044441483862	341.164923395463	283.282847117290	1198.706905455169	231.025210503015	345.777827594319	1007.589730837931	398.428430586257	575.055119572032	927.368646847521	302.392653212976	637.868240070155	960.998877796191	203.376751908648	576.573919383407	816.508709612262	42.835358058846	548.224258298771	986.111745147161	96.291433208488	587.093037168674	897.115522120851	37.039516346599	625.892526845725	1105.609392011948	42.917039811866	621.573786083784	1093.374270785073	56.610529674180	364.870646337115	1176.672460938508	60.307259991107	294.341189192445	1248.128517565055	133.213049472074	327.157662745775	1382.855037921712	97.815117100223	315.942732737107	928.262356466449	1075.810651517943	207.740521774713	908.516823788359	816.794795389011	220.345359995771	1203.783023983536	1113.128805888060	740.043535812550	1415.000755254658	1169.877886084372	624.614027260713	
20	36.894785714286	853.565714804270	1023.403135528866	494.708374581084	1068.115263949966	1413.660977886272	278.984262941254	1176.984806677658	1338.500617578728	432.367672339535	1124.169595133378	1435.108855645598	605.795448177254	1090.359034734004	1481.695854423365	425.286298825776	1075.556265164251	933.527919930296	599.207011451362	1050.125599050150	948.900105653269	324.365991503734	1086.182490539646	725.801444757228	575.390757970017	989.802911136593	632.554915102233	639.232492812291	1053.023420671872	568.202031880052	557.475210275021	1039.048677018941	482.234876866051	564.604153829493	1128.794119244562	787.381367690681	372.823152006656	1099.033594491889	658.112014154237	290.646823204525	1196.767627345995	603.487409951298	364.513697091393	1225.544247144371	532.368471076677	361.886906073506	1202.216182731742	456.203175935330	347.422071315602	1130.012497350168	335.085903670469	283.133521502130	1197.608933257612	226.299776368407	345.964819550532	1004.267819733693	397.006999612042	574.007165163140	922.893205919682	302.111109354655	637.136625820893	955.101139855217	202.610012817046	576.039665442470	809.072678635590	42.749716760407	548.242588563522	978.647944884882	96.189938874981	586.910912109372	889.651520713444	36.975393713109	625.849401639104	1098.142408505520	42.767441283466	621.646817845009	1094.509217478061	51.515223122313	366.463493852469	1177.447916441573	55.448231815337	295.561920567344	1248.472735734428	128.711572585132	327.856814805805	1383.351084877550	94.008263382298	316.324681549780	924.460704088095	1076.859145963789	206.903217173367	903.824251450594	817.755326660899	219.705603814474	1207.647328933951	1112.622974826917	734.397755054192	1416.136306041570	1175.171385835170	617.509108306466	
21	36.907142857143	855.180352950632	1021.563258689267	491.797314876022	1068.190432938339	1412.840030472530	276.821856878100	1177.003009301303	1338.283842926039	430.518342986218	1122.979355177953	1434.486842994189	603.727849172863	1089.564374120379	1480.881661693156	423.193128509896	1077.082799189443	932.667184279669	597.562506991280	1052.665515574964	947.093150403679	322.766539096992	1086.252540078243	724.221714693390	574.108028466328	988.949372063656	631.305676708757	637.776259687817	1051.936904484144	566.350388784936	556.352438202128	1036.994404074143	480.419056002911	563.255750226195	1129.415996709787	782.266244444661	370.631447335701	1096.089796672187	653.600661499382	289.075675141649	1193.287954309821	597.624663919697	362.537895034033	1220.129100009038	526.825047039163	360.264872878961	1197.563298019982	451.166348275295	345.787523284117	1125.848558297183	329.122282011941	283.211126124488	1195.015536671064	221.430630880546	346.229470857302	1001.132105931084	395.500534631005	572.844388427251	918.590956616588	301.827093238603	636.383193905296	949.260412773974	201.826725665635	575.485942587350	801.631019532455	42.704778120026	548.273902895659	971.205550690799	96.098489044254	586.738032046440	882.200419031176	36.917243231488	625.815079383427	1090.692697105358	42.586819209157	621.726579933821	1093.100716744224	47.203083927046	368.611192417168	1175.425859278694	50.818514938237	297.048137052596	1246.653143610932	123.780640348333	328.642454263626	1381.351766240198	88.731774473846	316.318672661551	921.682903247053	1077.449566986976	205.817946107924	900.106330149643	818.283147611142	218.737761648663	1210.569442608361	1111.885670590757	728.798706148252	1416.577007244540	1179.379889192347	610.665254169957	
22	36.919500000000	856.934478380466	1019.607473208650	488.832150894486	1068.252816082256	1411.967777134578	274.504846597726	1177.052977426733	1338.108937185596	428.536708555949	1121.690592745679	1433.828664188635	601.556221324545	1088.699214487029	1480.041081090810	420.934671395539	1078.875035583512	931.718754821178	595.728902343561	1055.293592425855	945.292630951877	321.095403396557	1086.613808382868	722.600735304055	572.589055732057	988.425164860807	630.019569353432	636.166413752213	1051.133774105035	564.450406385003	555.071925707646	1035.229130256932	478.484870229248	561.748611599693	1130.227036553785	777.164293707471	368.028971560639	1093.099436684382	649.160515466617	287.360640981148	1190.091837901694	592.003697839483	360.190486137151	1214.925641021863	521.358076801890	358.343435762911	1192.909605500287	446.131622727526	344.009196241215	1120.996563176078	323.491177182799	283.376818652861	1191.294828726450	216.625342464728	346.529842001716	998.186192828832	393.954868771682	571.583003667409	914.461811861338	301.588355464185	635.613000488898	943.492350441571	201.075795643503	574.926797146907	794.190120681943	42.768697235268	548.327233325978	963.811925342269	96.031188998857	586.586050280885	874.772162312227	36.900713517708	625.793210815033	1083.269472512662	42.366244763839	621.816237243189	1089.545150857444	43.708748561241	370.999882164262	1171.136427121016	46.580636621433	298.614970812201	1243.087692963237	118.675480028076	329.496871336136	1377.369183494729	82.402250752528	316.095257929147	919.979273083335	1077.558299089096	204.439135855168	897.424052068891	818.363892890497	217.420476412457	1212.517803524629	1110.867251334797	723.335181086135	1416.358920415803	1182.447052102509	604.125726827266	
23	36.931857142857	858.749844920747	1017.650745688064	485.879712233102	1068.308628213571	1411.097424501059	272.047947896719	1177.150826716002	1337.982211337289	426.405676722911	1120.413070987162	1433.157684970317	599.287600784440	1087.840059862317	1479.220565919600	418.524296027375	1080.852122328531	930.741574946888	593.682870155782	1057.886320693657	943.602244709650	319.308230377596	1087.231299958307	721.006049817330	570.826398578417	988.220702756301	628.757636695838	634.406785716346	1050.621117510522	562.575719707160	553.632949943435	1033.802432507999	476.466933244926	560.115780694233	1131.197662901655	772.367880722690	365.030283298796	1090.192732516918	645.019243307278	285.530390220757	1187.296815753881	586.896002149439	357.533084090691	1210.167059793343	516.270017895403	356.229931381892	1188.524256990630	441.371239506328	342.187336995339	1115.921193940028	318.426874113174	283.475575432448	1186.826453474415	212.113880771315	346.814612377155	995.454009132961	392.425454340831	570.246839901533	910.517287777011	301.457126250270	634.828326776432	937.827768194136	200.419237586251	574.376867695193	786.762776789601	43.034555154346	548.411161269016	956.506274851882	96.008611371218	586.471596928054	867.379952855538	36.977276162480	625.785185509820	1075.883725926964	42.097740163922	621.917710457275	1084.302260047522	41.045626542578	373.329069054647	1165.158196296398	42.898674635826	300.088894190149	1238.207460081075	113.694635327587	330.382166951065	1371.923833821558	75.546354044157	315.801889700417	919.358107126245	1077.203179776789	202.736038236418	895.830276489729	818.012899323820	215.725746641666	1213.476443486074	1109.542162805251	718.096705443028	1415.530725054718	1184.309174996735	597.922706957323	
